<?xml version="1.0" encoding="UTF-8"?>
<svg id="Layer_1" data-name="Layer 1" xmlns="http://www.w3.org/2000/svg" viewBox="0 0 1200 1200">
  <defs>
    <style>
      .cls-1 {
        fill: #fff;
      }

      .cls-2 {
        fill: none;
      }

      .cls-3 {
        fill: #17113e;
      }

      .cls-4 {
        fill: #cf1f3c;
      }

      .cls-5 {
        fill: #a7a9ac;
      }

      .cls-6 {
        fill: #e6e6e6;
      }

      .cls-7 {
        fill: #a51e27;
      }
    </style>
  </defs>
  <path class="cls-3" d="M1112.59,398.68l-51.3-231.41c-10.18-45.9-50.88-78.57-97.9-78.57H234.2c-47.02,0-87.72,32.67-97.9,78.57l-51.3,231.41c-107.09,563.61,513.79,710.15,513.79,710.15,0,0,620.88-146.54,513.79-710.15Z"/>
  <path class="cls-1" d="M601.89,1050.51c-40.27-11.75-156.29-50.34-261.61-130.78-164.73-125.82-228.54-294.16-189.66-500.31l51.09-230.44c3.72-16.78,18.32-28.5,35.51-28.5h729.18c17.19,0,31.79,11.72,35.51,28.5l51.09,230.44c39.13,207.44-25.68,376.51-192.64,502.57-105.19,79.42-218.69,117-258.47,128.52Z"/>
  <path class="cls-4" d="M171.18,471.9c-7.37,75.66.91,145.63,24.77,208.59,29.46,77.73,83.53,147.02,160.7,205.96,29.61,22.61,60.02,41.76,89.27,57.84v-472.39H171.18Z"/>
  <path class="cls-4" d="M751.87,471.9v472.35c28.17-15.53,57.48-33.95,86.21-55.64,78.24-59.07,133.09-128.62,163.02-206.7,24.27-63.33,32.74-133.77,25.3-210h-274.53Z"/>
  <g>
    <path class="cls-3" d="M971.07,153.96h-134.42l-30.35,27.1v-27.1h-88.69l-20.87,33.12-21.09-33.12h-88.63v80.52h12.52v108.42h-5.75l-47.12-188.93h-76.36l-47.12,188.93h-10.59l-16.99-34.01,30.4-27.36v-79.98l-52.86-47.58h-146.65v80.52h12.19v108.42h-12.19v80.52h691.71l52.86-47.58v-79.98l-40.18-36.17h40.18v-105.73ZM340.53,247.22l-1.51,1.36h-14.49v-14.1h14.49l1.51,1.36v11.37ZM685.03,342.9v-16.63l10.59,16.63h-10.59ZM708.29,342.9h-10.11l10.11-16.05v16.05ZM793.78,317.39v-26.87l30.09,26.87h-30.09ZM885.58,341.53l-1.51,1.36h-13.31l-1.51-1.36v-12.74h14.69l1.65,1.52v11.22ZM885.58,248.28h-14.82l-1.51-1.36v-11.08l1.51-1.36h13.31l1.51,1.36v12.44Z"/>
    <g>
      <g>
        <path class="cls-6" d="M337.63,360.76h9.56l-24.72-49.53h-15.82v49.53h12.19v44.79h-74.47v-44.79h12.19v-144.15h-12.19v-44.79h121.93l41.85,37.67v64.07l-34.6,31.14,28.01,56.06h10.54v44.79h-74.48v-44.79ZM306.66,216.61v49.83h39.22l12.52-11.27v-27.29l-12.52-11.27h-39.22Z"/>
        <path class="cls-6" d="M591.71,405.55h-74.48v-44.79h11.53l-2.64-12.16h-34.93l-2.97,12.16h11.53v44.79h-74.48v-44.79h11.86l47.12-188.93h48.44l47.12,188.93h11.87v44.79ZM518.22,318.05l-9.56-38.56-9.89,38.56h19.44Z"/>
        <path class="cls-6" d="M713.96,405.55v-44.79h12.19v-95.8l-29.33,46.57-29.66-46.57v95.8h12.19v44.79h-74.47v-44.79h12.52v-144.15h-12.52v-44.79h60.96l30.98,48.64,30.65-48.64h60.96v44.79h-12.52v144.15h12.52v44.79h-74.48Z"/>
        <path class="cls-6" d="M953.21,241.82h-49.76v-13.94l-12.52-11.27h-27.02l-12.52,11.27v26.99l12.52,11.27h47.45l41.85,37.67v64.07l-41.85,37.67h-51.08l-8.9-7.71v7.71h-49.76v-70.29h49.76v14.24l12.52,11.27h27.02l12.52-11.27v-26.99l-12.52-11.57h-47.45l-41.85-37.37v-64.36l41.85-37.37h51.08l8.9,7.71v-7.71h49.76v70Z"/>
      </g>
      <g>
        <polygon class="cls-5" points="306.66 266.44 306.66 216.61 345.87 216.61 354.17 194.98 280.85 194.98 280.85 383.91 266.01 383.91 244.37 405.55 318.85 405.55 318.85 360.76 306.66 360.76 306.66 311.23 322.47 311.23 336.34 288.69 283.07 288.69 306.66 266.44"/>
        <polygon class="cls-5" points="373.55 304.7 408.15 273.56 408.15 209.5 386.52 219.13 386.52 263.93 346.83 299.64 388.19 382.4 389.04 383.91 359.27 383.91 337.63 405.55 412.11 405.55 412.11 360.76 401.56 360.76 373.55 304.7"/>
        <polygon class="cls-5" points="532.72 171.83 508.66 190.93 544.11 330.8 475.49 330.8 498.78 318.05 508.66 279.49 508.66 190.93 487.7 274.12 460.68 382.4 460.32 383.91 446.93 383.91 425.29 405.55 499.76 405.55 499.76 360.76 488.23 360.76 491.2 348.6 526.13 348.6 544.17 331.03 557.57 383.91 538.87 383.91 517.23 405.55 591.71 405.55 591.71 360.76 579.84 360.76 532.72 171.83"/>
        <polygon class="cls-5" points="667.17 264.96 647.29 193.46 642.27 193.46 642.27 383.91 626.52 383.91 604.89 405.55 679.36 405.55 679.36 360.76 667.17 360.76 667.17 264.96"/>
        <polygon class="cls-5" points="696.83 271.09 696.83 311.53 726.16 264.96 750.91 193.46 745.62 193.46 696.83 271.09"/>
        <polygon class="cls-5" points="788.44 216.61 766.8 193.46 750.91 193.46 750.91 213.83 750.91 383.91 735.6 383.91 713.96 405.55 788.44 405.55 788.44 360.76 775.92 360.76 775.92 216.61 788.44 216.61"/>
        <polygon class="cls-5" points="843.47 310.93 890.93 310.93 903.45 322.5 925.09 313.03 899.39 289.3 851.73 289.3 843.47 310.93"/>
        <polygon class="cls-5" points="928.31 193.46 928.31 220.19 903.45 241.82 953.21 241.82 953.21 171.83 928.31 193.46"/>
        <polygon class="cls-5" points="851.38 227.88 863.9 216.61 890.93 216.61 888.23 194.98 855.6 194.98 829.74 218.25 829.74 264.51 851.38 254.87 851.38 227.88"/>
        <polygon class="cls-5" points="931.57 358.24 903.06 383.91 868.35 383.91 848.87 371.26 826.22 371.26 826.22 383.91 801.62 405.55 851.38 405.55 851.38 397.84 860.28 405.55 911.36 405.55 953.21 367.88 953.21 303.81 931.57 313.45 931.57 358.24"/>
      </g>
    </g>
  </g>
  <g>
    <path class="cls-3" d="M747.16,407.64h-21.55l-6.09,6.09-6.09-6.09h-21.62l-6.17,6.12-6.17-6.12h-21.55l-13.11,13.12v27.69h-.44v-40.81h-126.4l-6.09,6.09-6.09-6.09h-55.45l-13.11,13.11v41.98l13.11,13.11h48.1v-18.81h6.41v5.7l13.11,13.11h90.87v-40.8h8.13v40.8h62.51l6.17-6.12,6.17,6.12h21.62l6.09-6.09,6.09,6.09h21.55l13.2-13.09v-42.02l-13.2-13.09ZM580.68,448.15l.76-.75v3.46l-.76-2.71Z"/>
    <g>
      <path class="cls-6" d="M476.16,459.04l-7.88,7.88h-14.24l-7.88-7.88v-8.01h9.53v3.62l2.73,2.73h5.47l2.8-2.73v-5.4l-2.8-2.73h-9.79l-7.95-7.94v-14.11l7.88-7.88h14.24l7.88,7.88v7.94h-9.47v-3.62l-2.8-2.67h-5.47l-2.73,2.73v5.34l2.73,2.8h9.85l7.88,7.88v14.17Z"/>
      <path class="cls-6" d="M502.09,448.1h-12.58v18.81h-9.53v-50.34h22.12l7.88,7.88v15.7l-7.88,7.95ZM500.5,435.84v-7.06l-2.8-2.67h-8.2v12.46h8.2l2.8-2.73Z"/>
      <path class="cls-6" d="M535.84,466.92h-14.17l-7.88-7.88v-34.58l7.88-7.88h14.17l7.95,7.88v34.58l-7.95,7.88ZM534.25,454.65v-25.87l-2.73-2.67h-5.47l-2.8,2.73v25.8l2.8,2.73h5.47l2.73-2.73Z"/>
      <path class="cls-6" d="M570.67,445.5l5.98,21.42h-9.92l-5.66-20.4h-3.94v20.4h-9.53v-50.34h22.12l7.94,7.88v14.11l-6.99,6.93ZM568.12,434.18v-5.4l-2.8-2.67h-8.2v10.87h8.2l2.8-2.8Z"/>
      <path class="cls-6" d="M608.74,426.11h-8.83v40.81h-9.53v-40.81h-8.9v-9.53h27.27v9.53Z"/>
      <path class="cls-6" d="M649.92,466.92h-24.03v-50.34h9.53v40.8h14.49v9.53Z"/>
      <path class="cls-6" d="M675.79,466.92h-14.17l-7.88-7.88v-34.58l7.88-7.88h14.17l7.94,7.88v34.58l-7.94,7.88ZM674.2,454.65v-25.87l-2.73-2.67h-5.47l-2.8,2.73v25.8l2.8,2.73h5.47l2.73-2.73Z"/>
      <path class="cls-6" d="M717.61,459.04l-7.88,7.88h-14.24l-7.94-7.88v-34.58l7.94-7.88h14.24l7.88,7.88v8.01h-9.53v-3.62l-2.73-2.73h-5.47l-2.73,2.73v25.8l2.73,2.73h5.47l2.73-2.73v-4.19h-6.61v-9.53h16.14v18.11Z"/>
      <path class="cls-6" d="M743.48,466.92h-14.17l-7.88-7.88v-34.58l7.88-7.88h14.17l7.94,7.88v34.58l-7.94,7.88ZM741.89,454.65v-25.87l-2.73-2.67h-5.47l-2.8,2.73v25.8l2.8,2.73h5.47l2.73-2.73Z"/>
    </g>
  </g>
  <g>
    <path class="cls-1" d="M1023.54,633.95l-28.46-6.75c-.62-.15-15.48-3.63-31.33-3.63-.17,0-.34,0-.52,0-10.93-36.67-32.01-68.8-62.76-95.63-42.19-36.8-89.05-55.46-139.29-55.46-17.11,0-34.46,2.22-51.59,6.6-39.96,10.21-69.06,29.04-80.95,37.68-8.12-1.9-18.51-2.96-29.24-2.96s-20.96,1.05-30.33,3.05c-11.81-8.6-40.98-27.52-81.07-37.76-17.12-4.38-34.48-6.6-51.59-6.6-50.25,0-97.11,18.66-139.3,55.46-30.75,26.83-51.83,58.96-62.76,95.63-.17,0-.34,0-.51,0-15.85,0-30.71,3.48-31.33,3.63l-28.46,6.75,24.71,15.65c.18.11,15.45,9.79,27.61,17.97-3.15,45.55,8.51,92.85,33.18,134,22.5,37.53,52.78,65.46,85.27,78.63,14.46,5.87,25.51,6.84,26.72,6.93l.49.03c1.37.05,2.89.08,4.56.08,20.26,0,69.37-4.93,95.57-49.7,4.68.63,12.76,3.68,18.87,16.4,9.27,19.28-2.36,43.24-2.44,43.4l-2.66,5.22.92,5.82c1.54,9.5,4.63,17.7,8.67,24.78l-1.27.03,1.86,1.01c18.31,30.96,54.71,39.85,56.62,40.3l2.01.47h88.08l2.03-.47c1.89-.44,38.28-9.33,56.59-40.29l1.88-1.02-1.27-.03c4.04-7.09,7.14-15.3,8.68-24.82l.92-5.79-2.62-5.13c-.12-.24-11.75-24.21-2.48-43.49,6.11-12.71,14.19-15.77,18.87-16.4,26.2,44.77,75.31,49.7,95.57,49.7,1.67,0,3.19-.03,4.56-.08l.49-.03c1.21-.09,12.25-1.07,26.72-6.93,32.49-13.18,62.77-41.1,85.27-78.63,24.67-41.15,36.33-88.45,33.18-134,12.15-8.18,27.43-17.86,27.61-17.97l24.71-15.65Z"/>
    <g>
      <path class="cls-5" d="M289.29,695.33c-11.58-10.58-24.62-19.93-39.2-28.14-3.32,41.38,7.14,84.55,29.73,122.23,18.06,30.12,42.11,53.34,68,66.17-7.34-9.36-16.59-22.19-25.64-37.53-32.04-54.31-35.62-96.62-32.89-122.73Z"/>
      <path class="cls-7" d="M408.48,716.46c3.91,4.33,7.51,8.64,10.79,12.87,6.93-1.52,13.01-2.15,18.36-2.13-3.68-4.51-11.72-9.8-29.15-10.75Z"/>
      <path class="cls-5" d="M334.21,674.01c-28.98-14.49-62.27-23.58-99.32-27.14,42.06,19.14,73.7,45.77,96.17,80.78,4.48,6.98,8.58,14.33,12.33,22.04.04-.02.08-.03.12-.05,1.62-.56,3.07-1.37,4.55-2.12,1.52-.7,2.79-1.65,4.1-2.47.64-.43,1.31-.81,1.88-1.26.57-.46,1.12-.9,1.65-1.33,1.04-.87,2.1-1.62,2.89-2.41.8-.79,1.5-1.49,2.08-2.06,1.17-1.16,1.83-1.83,1.83-1.83,0,0-.37.86-1.03,2.37-.34.76-.74,1.69-1.21,2.76-.46,1.08-1.18,2.17-1.87,3.46-.36.64-.74,1.3-1.13,1.98-.4.69-.9,1.32-1.38,2.02-.99,1.36-1.97,2.91-3.25,4.27-1.23,1.41-2.5,2.94-4,4.26-.4.37-.81.75-1.21,1.13,2.8,6.41,5.38,13.06,7.71,19.97.12-.02.24-.04.37-.05,1.71-.4,3.56-.67,5.27-1.29l2.65-.82c.86-.35,1.71-.71,2.55-1.05,1.75-.64,3.33-1.55,4.92-2.39,1.64-.78,3.01-1.84,4.42-2.76.69-.48,1.41-.9,2.02-1.4.61-.51,1.2-1,1.77-1.47,1.12-.97,2.25-1.79,3.09-2.67.86-.87,1.6-1.64,2.22-2.26,1.25-1.28,1.96-2.01,1.96-2.01,0,0-.42.93-1.15,2.55-.37.82-.83,1.82-1.35,2.97-.52,1.16-1.31,2.34-2.08,3.71-.4.68-.82,1.39-1.25,2.13-.44.74-1,1.41-1.52,2.16-1.09,1.46-2.17,3.11-3.57,4.56-1.35,1.51-2.73,3.13-4.38,4.54-.81.74-1.62,1.48-2.43,2.22l-2.65,2.02c-1.75,1.43-3.7,2.52-5.59,3.74-.41.23-.82.45-1.23.67,2.17,7.63,4.1,15.53,5.77,23.75.84-.09,1.67-.24,2.52-.38,1.05-.2,2.16-.34,3.23-.6,2.11-.59,4.38-1.01,6.48-1.85l3.24-1.13c1.04-.47,2.08-.95,3.11-1.42,2.13-.87,4.04-2.06,5.95-3.17,1.98-1.04,3.63-2.4,5.32-3.58.82-.62,1.68-1.16,2.41-1.8.73-.65,1.43-1.27,2.11-1.87,1.33-1.23,2.68-2.28,3.67-3.38,1.01-1.1,1.89-2.06,2.62-2.85,1.47-1.6,2.31-2.52,2.31-2.52,0,0-.55,1.11-1.5,3.06-.48.98-1.07,2.18-1.75,3.55-.67,1.39-1.68,2.78-2.65,4.42-.51.81-1.04,1.65-1.59,2.53-.56.87-1.26,1.67-1.91,2.56-1.37,1.72-2.72,3.68-4.46,5.38-1.68,1.77-3.39,3.68-5.41,5.31-.99.86-1.99,1.72-2.99,2.59l-3.24,2.34c-2.14,1.65-4.51,2.9-6.8,4.31-1.16.67-2.36,1.21-3.54,1.81-1.18.58-2.35,1.18-3.54,1.64-.29.12-.56.23-.84.34.58,3.65,1.12,7.34,1.61,11.1.43.03.83.07,1.28.1,1.62.02,3.42.17,5.3.05.94-.04,1.92-.05,2.92-.11.99-.1,2.01-.2,3.04-.31,1.05-.07,2.08-.28,3.14-.46,1.05-.2,2.16-.34,3.23-.6,2.11-.59,4.38-1.01,6.48-1.85l3.24-1.13c1.04-.48,2.08-.95,3.11-1.42,2.13-.87,4.04-2.06,5.95-3.17,1.98-1.03,3.63-2.4,5.32-3.58.82-.62,1.68-1.16,2.41-1.8.73-.65,1.43-1.27,2.11-1.87,1.33-1.23,2.68-2.28,3.67-3.38,1.01-1.1,1.89-2.06,2.62-2.85,1.47-1.6,2.31-2.52,2.31-2.52,0,0-.54,1.11-1.5,3.06-.48.98-1.07,2.18-1.75,3.55-.67,1.39-1.68,2.78-2.65,4.42-.51.81-1.04,1.66-1.58,2.53-.56.87-1.26,1.67-1.92,2.56-1.37,1.72-2.72,3.68-4.46,5.38-1.68,1.77-3.39,3.68-5.41,5.31-.99.86-1.99,1.72-2.99,2.59l-3.24,2.34c-2.14,1.65-4.51,2.9-6.8,4.31-1.16.67-2.36,1.21-3.54,1.81-1.18.58-2.35,1.18-3.54,1.64-1.19.49-2.36.97-3.51,1.44-1.16.43-2.32.8-3.44,1.18-2.25.81-4.43,1.29-6.45,1.85-.44.1-.84.18-1.26.28.07.86.17,1.69.24,2.55,14.24.75,58.75-.22,80.67-38.84-1.81-8.94-11.28-48.99-42.09-88.6-20.34-26.15-45.91-47.04-75.99-62.08Z"/>
      <path class="cls-5" d="M728.01,594.64l9.66-.48,1.67,4.44c14.64-9.74,37.73-20.97,64.63-19.14,27.16,1.85,52.01,16.67,73.95,44,2.3-1.39,4.69-3.06,7.21-5.06l8.94-7.11.23,11.42c.02.78.27,15-1.64,27.21,15.15-5.05,31.79-9.12,50.03-11.91-4.54-18.15-11.84-35.12-21.82-50.82-.16.47-.33.94-.53,1.37-.34.71-.66,1.4-.97,2.07-.65,1.31-1.13,2.52-1.75,3.52-.6.99-1.13,1.86-1.56,2.58-.86,1.4-1.34,2.2-1.34,2.2,0,0,.16-.93.44-2.55.13-.8.3-1.77.48-2.88.2-1.1.2-2.4.31-3.75.04-.68.09-1.38.14-2.11.04-.73-.04-1.49-.05-2.26-.08-1.55-.04-3.14-.35-4.78-.06-.45-.13-.9-.19-1.35-6.95-9.72-14.96-18.93-24.07-27.57,0,1.79-.02,3.57-.13,5.3-.15,2.99-.22,5.87-.41,8.59-.24,2.71-.46,5.28-.67,7.65-.17,2.36-.43,4.52-.7,6.43-.25,1.91-.46,3.57-.64,4.94-.36,2.73-.56,4.29-.56,4.29,0,0-.12-1.57-.33-4.32-.11-1.37-.23-3.03-.38-4.94-.13-1.9-.31-4.05-.62-6.38-.28-2.32-.58-4.84-.9-7.51-.36-2.65-.87-5.44-1.33-8.31-.41-2.88-1.1-5.81-1.71-8.78v-.06c-.71-3.65-2.82-6.86-5.71-9.19-11.85-9.55-24-17.54-36.43-23.95.1.24.21.48.3.72,1.18,2.93,2.4,5.77,3.35,8.61.99,2.83,2,5.52,2.84,8.12.8,2.6,1.56,5.07,2.25,7.34.73,2.25,1.29,4.35,1.76,6.22.49,1.86.91,3.48,1.26,4.82.69,2.66,1.09,4.18,1.09,4.18,0,0-.7-1.41-1.93-3.88-.61-1.23-1.35-2.72-2.2-4.43-.83-1.72-1.81-3.63-2.97-5.68-1.13-2.05-2.35-4.27-3.65-6.62-1.33-2.33-2.85-4.71-4.34-7.2-1.46-2.51-3.19-4.97-4.88-7.5-1.65-2.55-3.49-5.02-5.32-7.47-.01-.02-.02-.03-.03-.05-2.16-3.04-5.29-5.24-8.79-6.51-7.62-2.76-15.33-4.96-23.14-6.6.15.32.31.62.44.94,1.36,2.93,2.71,5.85,3.85,8.79,1.18,2.93,2.4,5.77,3.35,8.61.99,2.82,2,5.52,2.84,8.12.8,2.6,1.55,5.07,2.25,7.34.73,2.26,1.29,4.35,1.76,6.22.49,1.86.91,3.48,1.26,4.82.69,2.66,1.09,4.18,1.09,4.18,0,0-.7-1.41-1.93-3.88-.61-1.23-1.35-2.72-2.21-4.43-.83-1.72-1.81-3.63-2.97-5.68-1.13-2.05-2.35-4.27-3.65-6.62-1.33-2.33-2.85-4.71-4.34-7.2-1.46-2.51-3.19-4.97-4.88-7.5-1.65-2.55-3.49-5.02-5.32-7.47-1.77-2.5-3.75-4.83-5.63-7.15,0,0,0-.01-.01-.02-.81-1.03-2.04-1.66-3.35-1.79-10.99-1.12-22.15-1.15-33.47-.09,1.24,1.76,2.47,3.54,3.59,5.39,1.74,2.72,3.47,5.43,5,8.2,1.56,2.75,3.15,5.4,4.47,8.09,1.36,2.67,2.72,5.2,3.9,7.66,1.14,2.47,2.22,4.81,3.22,6.97,1.02,2.14,1.87,4.14,2.58,5.93.73,1.78,1.37,3.33,1.89,4.6,1.04,2.54,1.64,4,1.64,4,0,0-.88-1.3-2.43-3.58-.77-1.14-1.71-2.52-2.78-4.1-1.05-1.59-2.28-3.36-3.71-5.23-1.4-1.88-2.91-3.92-4.51-6.07-1.63-2.13-3.45-4.29-5.27-6.55-1.79-2.29-3.83-4.5-5.84-6.77-1.98-2.31-4.13-4.5-6.28-6.69-2.09-2.24-4.36-4.28-6.54-6.33-.01-.01-.03-.02-.04-.04-2.31-2.23-5.61-3.17-8.76-2.55-3.28.65-6.57,1.39-9.87,2.23-12.26,3.11-23.47,7.18-33.33,11.5,1.69,1.36,3.37,2.79,5.12,4.25,2.25,2.11,4.68,4.16,6.9,6.47,2.26,2.28,4.58,4.54,6.7,6.97,2.18,2.39,4.34,4.76,6.31,7.23,2,2.44,4.02,4.78,5.78,7.21,1.79,2.4,3.56,4.66,5.14,6.89,1.55,2.24,3.01,4.37,4.35,6.33,1.37,1.93,2.54,3.76,3.55,5.41,1.02,1.63,1.91,3.05,2.64,4.22,1.46,2.33,2.3,3.66,2.3,3.66,0,0-1.09-1.13-3-3.12-.95-.99-2.11-2.19-3.43-3.57-1.31-1.39-2.82-2.92-4.54-4.52-1.69-1.62-3.53-3.37-5.47-5.22-1.97-1.82-4.13-3.64-6.31-5.56-2.15-1.96-4.54-3.78-6.9-5.69-2.34-1.94-4.84-3.74-7.32-5.53-2.44-1.85-5.03-3.48-7.52-5.13-2.47-1.69-5.06-3.06-7.45-4.54-2.48-1.32-4.83-2.66-7.13-3.73-1.14-.54-2.25-1.07-3.33-1.57-1.09-.46-2.14-.9-3.15-1.32-.63.04-1.43.08-2.06.12-7.95,4.37-14.2,8.42-18.52,11.4,43.6,14.37,70.33,43.63,82.82,60.61Z"/>
      <path class="cls-5" d="M303.28,622.7l.23-11.42,8.94,7.11c2.52,2.01,4.92,3.67,7.21,5.06,21.94-27.33,46.79-42.16,73.95-44,26.89-1.83,49.99,9.41,64.63,19.14l1.67-4.44,9.66.48c12.5-16.98,39.22-46.24,82.82-60.61-4.32-2.99-10.58-7.03-18.52-11.4-.63-.04-1.43-.08-2.06-.12-1.01.42-2.06.86-3.15,1.32-1.08.51-2.19,1.03-3.33,1.57-2.3,1.07-4.65,2.41-7.13,3.73-2.4,1.47-4.99,2.85-7.45,4.54-2.49,1.65-5.08,3.28-7.52,5.13-2.48,1.79-4.98,3.59-7.32,5.53-2.37,1.9-4.76,3.73-6.9,5.69-2.18,1.92-4.34,3.75-6.31,5.56-1.94,1.85-3.78,3.6-5.47,5.22-1.72,1.6-3.23,3.14-4.54,4.52-1.33,1.38-2.48,2.58-3.43,3.57-1.91,1.99-3,3.12-3,3.12,0,0,.83-1.33,2.3-3.66.73-1.17,1.62-2.59,2.65-4.22,1.01-1.64,2.18-3.47,3.55-5.41,1.35-1.96,2.81-4.08,4.35-6.33,1.58-2.22,3.36-4.49,5.15-6.89,1.76-2.43,3.77-4.77,5.78-7.21,1.97-2.47,4.14-4.85,6.31-7.23,2.13-2.44,4.45-4.7,6.7-6.97,2.23-2.31,4.66-4.35,6.9-6.47,1.75-1.46,3.43-2.89,5.12-4.25-9.86-4.32-21.06-8.39-33.33-11.5-3.3-.84-6.59-1.58-9.87-2.23-3.15-.63-6.45.31-8.77,2.55-.01.01-.03.02-.04.04-2.17,2.05-4.45,4.09-6.54,6.33-2.14,2.19-4.3,4.38-6.28,6.69-2.01,2.28-4.05,4.48-5.84,6.77-1.82,2.27-3.64,4.43-5.27,6.55-1.6,2.15-3.11,4.19-4.51,6.07-1.43,1.87-2.65,3.64-3.71,5.23-1.07,1.58-2.01,2.96-2.78,4.1-1.55,2.28-2.43,3.58-2.43,3.58,0,0,.6-1.45,1.64-4,.53-1.28,1.16-2.83,1.89-4.6.71-1.79,1.56-3.79,2.58-5.93,1-2.16,2.08-4.5,3.22-6.97,1.18-2.46,2.55-4.99,3.9-7.66,1.32-2.69,2.91-5.34,4.47-8.09,1.53-2.77,3.26-5.48,5-8.2,1.13-1.85,2.35-3.63,3.59-5.39-11.32-1.05-22.48-1.02-33.47.09-1.31.13-2.53.76-3.34,1.79,0,0,0,.01-.01.02-1.88,2.32-3.85,4.65-5.63,7.15-1.83,2.46-3.68,4.92-5.32,7.47-1.68,2.52-3.41,4.99-4.88,7.5-1.5,2.49-3.01,4.88-4.34,7.2-1.3,2.35-2.52,4.57-3.65,6.62-1.16,2.04-2.14,3.96-2.97,5.68-.85,1.71-1.59,3.21-2.21,4.43-1.23,2.47-1.93,3.88-1.93,3.88,0,0,.4-1.52,1.09-4.18.35-1.34.77-2.96,1.26-4.82.47-1.87,1.04-3.97,1.76-6.22.7-2.27,1.45-4.74,2.25-7.34.84-2.6,1.85-5.29,2.84-8.12.95-2.84,2.17-5.68,3.35-8.61,1.14-2.95,2.49-5.87,3.85-8.79.14-.32.3-.63.45-.94-7.81,1.64-15.52,3.83-23.14,6.6-3.51,1.27-6.63,3.48-8.79,6.51-.01.02-.02.03-.03.05-1.83,2.45-3.68,4.92-5.32,7.47-1.68,2.53-3.42,4.99-4.88,7.5-1.5,2.49-3.01,4.88-4.34,7.2-1.3,2.35-2.52,4.57-3.65,6.62-1.16,2.04-2.14,3.96-2.97,5.68-.85,1.71-1.59,3.2-2.21,4.43-1.23,2.47-1.93,3.88-1.93,3.88,0,0,.4-1.52,1.09-4.18.35-1.34.77-2.96,1.26-4.82.47-1.87,1.04-3.97,1.76-6.22.7-2.27,1.45-4.74,2.25-7.34.84-2.6,1.85-5.29,2.84-8.12.95-2.84,2.17-5.68,3.35-8.61.09-.24.21-.48.3-.72-12.43,6.41-24.58,14.4-36.43,23.95-2.89,2.33-5,5.55-5.7,9.19v.06c-.62,2.97-1.31,5.9-1.72,8.78-.46,2.87-.97,5.65-1.33,8.31-.32,2.66-.62,5.18-.9,7.51-.31,2.33-.5,4.48-.62,6.38-.15,1.91-.27,3.57-.38,4.94-.21,2.75-.33,4.32-.33,4.32,0,0-.2-1.56-.56-4.29-.18-1.37-.39-3.03-.64-4.94-.27-1.91-.53-4.07-.7-6.43-.21-2.37-.43-4.94-.67-7.65-.19-2.72-.27-5.6-.41-8.59-.11-1.73-.13-3.51-.13-5.3-9.11,8.64-17.12,17.85-24.07,27.57-.06.45-.12.9-.19,1.35-.31,1.64-.26,3.23-.35,4.78-.01.77-.09,1.53-.05,2.26.05.73.09,1.43.14,2.11.11,1.36.11,2.65.31,3.75.19,1.11.35,2.08.49,2.88.28,1.62.44,2.55.44,2.55,0,0-.49-.8-1.34-2.2-.43-.71-.96-1.58-1.56-2.58-.62-1-1.1-2.21-1.75-3.52-.31-.66-.64-1.35-.97-2.07-.2-.44-.37-.9-.53-1.37-9.98,15.7-17.29,32.67-21.82,50.82,18.24,2.79,34.88,6.86,50.03,11.91-1.91-12.21-1.66-26.43-1.64-27.21Z"/>
      <path class="cls-4" d="M817.13,678.8c9.1.4,12.87.57,23.9-5.35l.08.15c11.64-7.05,24.64-13.55,39.08-19.16,1.59-5.57,2.33-13.8,2.64-20.74-18.61,10.84-32.72,6.86-45.39,3.28-13.03-3.68-24.28-6.86-41.28,4.7-25.54,17.36-43.42,18.05-53.89,15.6l-15.06,34.66,8.2-54.03-10.6-24.46-28.08.82-32.7,18.39-21.74,42.03,11.59-59.06,38.31-19.2,17.54-.87c-10.97-15.04-24.07-26.17-37.45-34.41-44.89-27.63-102.12-27.63-147.01,0-13.38,8.23-26.49,19.36-37.45,34.4l17.54.87,38.31,19.2,11.59,59.06-21.74-42.03-32.7-18.39-28.08-.82-10.6,24.46,8.2,54.03-15.06-34.66c-10.47,2.44-28.34,1.76-53.89-15.6-17-11.56-28.25-8.38-41.28-4.7-12.66,3.58-26.78,7.56-45.39-3.28.31,6.94,1.05,15.17,2.64,20.74,14.44,5.62,27.44,12.11,39.08,19.16l.08-.15c11.03,5.92,14.8,5.76,23.9,5.35,7.78-.35,18.43-.82,38.17,2.03,19.67,2.84,35.66,15.8,46.25,37.48,7.15,14.64,9.51,28.43,9.9,30.95l.19.68,9.85,34.94,22.61,10.36h-28.57l-4.53-8.05c.64,13.8,3.37,23.09,3.98,27.85,7.07,2.04,22.4,4.46,34.03,28.66.67,1.39,1.26,2.79,1.8,4.19h0s7.74-16.67,7.74-16.67l31.09-14.57-22.61,23.55s-8.93,16.28-12.94,42.38h0c-1.66,11.21-5.25,20.05-6.92,23.72,2.12,10.82,7.42,19.23,13.74,25.73,34.86,5.82,61.57-11.09,68.88-16.37v-21.22l-4.3-12.36-9.58-6.41-12.79-1.97-9.42,6.88,5.71,16.58-16.3-12.77v-15.22l14.13-11.14,25.82,1.36,12.44,3.56,12.44-3.56,25.82-1.36,14.13,11.14v15.22l-16.3,12.77,5.71-16.58-9.42-6.88-12.79,1.97-9.58,6.41-4.3,12.36v21.22c7.31,5.28,34.02,22.19,68.88,16.37,6.32-6.49,11.62-14.91,13.74-25.73-1.66-3.66-5.25-12.51-6.92-23.72h0c-4.02-26.1-12.94-42.38-12.94-42.38l-22.61-23.55,31.09,14.57,7.74,16.67h0c.54-1.39,1.13-2.79,1.8-4.18,11.64-24.21,26.97-26.62,34.03-28.66.61-4.76,3.33-14.05,3.98-27.85l-4.53,8.05h-28.57l22.61-10.36,9.85-34.94.19-.68c.39-2.52,2.75-16.31,9.9-30.95,10.58-21.68,26.57-34.64,46.25-37.48,19.75-2.85,30.4-2.38,38.17-2.03ZM503.02,762.35l-17.9-13.66-1.88-24.73,6.61,18.13,15.76,12.01,21.9-3.66-24.49,11.9ZM541.49,773.73c.42,2.6,2.41,36.56,2.51,40.19-1.63-3.25-16.55-41.73-16.55-41.73,0,0,11.4-22.61,12.62-24.89l-5.55-7.74-1.84,3.8-28.42-1.57-17.4-33.29,7.64-13.55-4.35-8.79-17.21-6.52,26.09-2.9,33.33,23.55,16.06,31.93c.17-.29,10.47-11.36,10.47-11.36l3.75-31.75,8.75,38.09-29.92,46.51ZM712.45,748.69l-17.9,13.66-24.49-11.9,21.9,3.66,15.76-12.01,6.61-18.13-1.88,24.73ZM707.42,686.19l-4.35,8.79,7.64,13.55-17.4,33.29-28.42,1.57-1.84-3.8-5.55,7.74c1.22,2.28,12.62,24.89,12.62,24.89,0,0-14.92,38.47-16.55,41.73.1-3.64,2.09-37.59,2.51-40.19l-29.92-46.51,8.75-38.09,3.75,31.75s10.31,11.07,10.48,11.36l16.06-31.93,33.33-23.55,26.09,2.9-17.21,6.52Z"/>
      <path class="cls-6" d="M690.87,898.13c-.23-.68-10.84-35.19-10.84-35.19l-5.87-21.94-6.92-.8-4.94-5.15-27.37-12.79-11.35-16.26-4.97-32.52-19.82-36.66-19.82,36.66-4.97,32.52-11.35,16.26-27.37,12.79-4.94,5.15-6.92.8-5.87,21.94s-10.61,34.52-10.84,35.19-1.81,13.55-1.81,14.23,23.03,34.1,23.03,34.1l17.31,12.65h107.08l17.31-12.65s23.03-33.42,23.03-34.1-1.58-13.55-1.81-14.23Z"/>
      <path class="cls-5" d="M908.29,695.33c2.73,26.1-.85,68.41-32.89,122.73-9.05,15.34-18.3,28.17-25.64,37.53,25.89-12.82,49.94-36.05,68-66.17,22.59-37.68,33.05-80.85,29.73-122.23-14.58,8.21-27.62,17.55-39.2,28.14Z"/>
      <path class="cls-5" d="M787.37,736.08c-30.81,39.61-40.28,79.66-42.09,88.6,21.92,38.62,66.43,39.59,80.67,38.84.07-.86.16-1.7.24-2.55-.42-.09-.83-.17-1.26-.28-2.02-.56-4.21-1.04-6.45-1.85-1.13-.38-2.28-.75-3.44-1.18-1.15-.47-2.32-.95-3.51-1.44-1.19-.45-2.36-1.05-3.54-1.64-1.17-.6-2.38-1.14-3.54-1.81-2.29-1.4-4.66-2.65-6.8-4.31l-3.24-2.34c-1-.87-2-1.73-2.99-2.59-2.02-1.63-3.73-3.54-5.41-5.31-1.74-1.7-3.09-3.66-4.46-5.38-.66-.89-1.36-1.69-1.92-2.56-.55-.87-1.08-1.72-1.59-2.53-.98-1.64-1.98-3.03-2.65-4.42-.68-1.37-1.26-2.57-1.75-3.55-.95-1.95-1.5-3.06-1.5-3.06,0,0,.84.92,2.31,2.52.73.79,1.61,1.75,2.62,2.85.99,1.1,2.34,2.15,3.67,3.38.68.6,1.38,1.22,2.11,1.87.73.64,1.59,1.18,2.41,1.8,1.69,1.18,3.34,2.54,5.32,3.58,1.92,1.11,3.82,2.3,5.95,3.17,1.03.47,2.07.94,3.11,1.42l3.25,1.13c2.1.84,4.38,1.26,6.48,1.85,1.07.26,2.18.4,3.23.6,1.06.18,2.09.39,3.14.46,1.03.1,2.05.21,3.04.31,1,.06,1.98.07,2.92.11,1.87.12,3.68-.03,5.3-.05.45-.03.86-.07,1.29-.1.49-3.76,1.03-7.45,1.61-11.1-.28-.12-.56-.23-.84-.34-1.19-.45-2.36-1.05-3.54-1.64-1.17-.6-2.38-1.14-3.54-1.81-2.29-1.4-4.66-2.65-6.8-4.31l-3.24-2.34c-1-.87-2-1.73-2.99-2.59-2.02-1.63-3.73-3.54-5.41-5.31-1.74-1.7-3.09-3.66-4.46-5.38-.66-.88-1.36-1.69-1.92-2.56-.55-.87-1.08-1.72-1.58-2.53-.98-1.64-1.98-3.03-2.65-4.42-.68-1.37-1.27-2.57-1.75-3.55-.95-1.95-1.5-3.06-1.5-3.06,0,0,.84.91,2.31,2.52.73.79,1.61,1.75,2.62,2.85.99,1.1,2.34,2.15,3.67,3.38.67.6,1.38,1.22,2.11,1.87.73.64,1.59,1.18,2.41,1.8,1.69,1.18,3.34,2.54,5.32,3.58,1.92,1.11,3.82,2.3,5.95,3.17,1.03.47,2.07.94,3.11,1.42l3.25,1.13c2.1.84,4.37,1.26,6.48,1.85,1.07.26,2.17.4,3.23.6.85.15,1.68.29,2.52.38,1.67-8.22,3.6-16.12,5.77-23.75-.41-.23-.82-.45-1.23-.67-1.89-1.22-3.84-2.32-5.59-3.74l-2.65-2.02c-.82-.74-1.63-1.48-2.43-2.22-1.64-1.4-3.03-3.03-4.38-4.54-1.4-1.45-2.48-3.11-3.57-4.56-.52-.75-1.08-1.43-1.52-2.16-.43-.73-.85-1.45-1.25-2.13-.77-1.38-1.56-2.55-2.08-3.71-.52-1.15-.98-2.14-1.35-2.97-.73-1.62-1.15-2.55-1.15-2.55,0,0,.71.73,1.96,2.01.62.63,1.36,1.39,2.22,2.26.84.87,1.98,1.7,3.1,2.67.57.47,1.16.96,1.77,1.47.61.5,1.33.92,2.02,1.4,1.41.92,2.78,1.97,4.42,2.76,1.59.84,3.16,1.75,4.92,2.39.85.35,1.7.7,2.55,1.05l2.65.82c1.72.61,3.56.88,5.27,1.29.12.02.24.04.37.05,2.34-6.91,4.91-13.56,7.71-19.97-.4-.38-.81-.76-1.21-1.13-1.5-1.32-2.77-2.85-4-4.26-1.28-1.36-2.26-2.91-3.25-4.27-.48-.7-.98-1.33-1.38-2.02-.39-.69-.77-1.35-1.13-1.98-.69-1.28-1.41-2.38-1.87-3.46-.47-1.06-.87-1.99-1.21-2.76-.65-1.51-1.03-2.37-1.03-2.37,0,0,.67.66,1.83,1.83.58.57,1.28,1.26,2.08,2.06.79.79,1.85,1.54,2.89,2.41.53.42,1.08.87,1.65,1.33.57.45,1.24.83,1.88,1.26,1.31.82,2.59,1.77,4.11,2.47,1.47.75,2.93,1.56,4.55,2.12.04.02.08.03.12.05,3.75-7.71,7.85-15.06,12.33-22.04,22.48-35.01,54.12-61.64,96.17-80.78-37.04,3.57-70.33,12.65-99.31,27.14-30.08,15.04-55.65,35.93-75.99,62.08Z"/>
      <g>
        <path class="cls-2" d="M813.33,548.54s-.4-1.52-1.09-4.18c0,0,0-.01,0-.01-.36-.06-.72-.13-1.08-.18.08.16.17.35.25.5,1.22,2.47,1.93,3.88,1.93,3.88Z"/>
        <path class="cls-2" d="M724.89,565.31c1.33,1.38,2.48,2.58,3.43,3.57,1.91,1.99,3,3.12,3,3.12,0,0-.84-1.33-2.3-3.66-.73-1.17-1.62-2.59-2.64-4.22-1.01-1.64-2.18-3.47-3.55-5.41-.87-1.27-1.8-2.62-2.76-4.01-1.45.53-2.91,1.09-4.38,1.65,1.63,1.56,3.2,3.06,4.65,4.44,1.72,1.6,3.23,3.14,4.54,4.52Z"/>
        <path class="cls-2" d="M771.88,547.54s-.6-1.45-1.64-4c-.05-.13-.12-.29-.17-.42-.37.04-.74.06-1.12.1.16.24.35.52.5.74,1.55,2.28,2.43,3.58,2.43,3.58Z"/>
        <path class="cls-2" d="M308.71,584.57c.36,2.73.56,4.29.56,4.29,0,0,.12-1.57.33-4.32.11-1.37.23-3.03.38-4.94.06-.86.13-1.79.22-2.75-.76.57-1.52,1.14-2.27,1.72.05.35.09.73.14,1.07.25,1.91.46,3.57.64,4.94Z"/>
        <path class="cls-2" d="M887.98,584.54c.21,2.75.33,4.32.33,4.32,0,0,.2-1.56.56-4.29.18-1.37.39-3.03.64-4.94.05-.34.09-.72.13-1.07-.75-.58-1.5-1.15-2.27-1.72.09.96.16,1.89.22,2.75.15,1.91.27,3.57.38,4.94Z"/>
        <path class="cls-2" d="M384.25,548.54s.7-1.41,1.93-3.88c.08-.15.17-.34.25-.5-.36.06-.72.12-1.08.18,0,0,0,0,0,.01-.69,2.66-1.09,4.18-1.09,4.18Z"/>
        <path class="cls-2" d="M425.7,547.54s.88-1.3,2.43-3.58c.15-.22.34-.5.5-.74-.38-.04-.74-.06-1.12-.1-.05.13-.12.29-.17.42-1.04,2.54-1.64,4-1.64,4Z"/>
        <path class="cls-2" d="M471.19,564.12c-1.02,1.63-1.91,3.05-2.65,4.22-1.46,2.33-2.3,3.66-2.3,3.66,0,0,1.09-1.13,3-3.12.95-.99,2.11-2.19,3.43-3.57,1.31-1.39,2.82-2.92,4.54-4.52,1.45-1.38,3.02-2.88,4.65-4.44-1.46-.56-2.93-1.13-4.38-1.65-.96,1.39-1.89,2.75-2.76,4.01-1.37,1.93-2.54,3.76-3.55,5.41Z"/>
        <path class="cls-6" d="M334.21,674.01c-28.98-14.49-62.27-23.58-99.32-27.14,32.88,14.97,59.36,34.53,80.11,59.07l.07.02s103.86,39.43,120.15,139.04h0c6.4-5.22,12.28-11.87,17.07-20.32-1.81-8.94-11.28-48.99-42.09-88.6-20.34-26.15-45.91-47.04-75.99-62.08Z"/>
        <path class="cls-6" d="M766.66,539.86c-1.05-1.59-2.28-3.36-3.71-5.23-1.4-1.88-2.91-3.92-4.51-6.07-1.63-2.13-3.45-4.29-5.27-6.55-1.79-2.29-3.83-4.5-5.84-6.77-1.98-2.31-4.13-4.5-6.28-6.69-2.09-2.24-4.36-4.28-6.54-6.33-.01-.01-.03-.02-.04-.04-2.31-2.23-5.61-3.17-8.76-2.55-3.28.65-6.57,1.39-9.87,2.23-12.26,3.11-23.47,7.18-33.33,11.5,1.69,1.36,3.37,2.79,5.12,4.25,2.25,2.11,4.68,4.16,6.9,6.47,2.26,2.28,4.58,4.54,6.7,6.97,2.18,2.39,4.34,4.76,6.31,7.23,2,2.44,4.02,4.78,5.78,7.21,1.79,2.4,3.56,4.66,5.14,6.89.55.79,1.07,1.55,1.59,2.31,17.28-6.26,33.57-9.92,48.87-11.48-.67-.99-1.42-2.09-2.28-3.36Z"/>
        <path class="cls-6" d="M886.98,573.23c-.28-2.32-.58-4.84-.9-7.51-.36-2.65-.87-5.44-1.33-8.31-.41-2.88-1.1-5.81-1.71-8.78v-.06c-.71-3.65-2.82-6.86-5.71-9.19-11.85-9.55-24-17.54-36.43-23.95.1.24.21.48.3.72,1.18,2.93,2.4,5.77,3.35,8.61.99,2.83,2,5.52,2.84,8.12.8,2.6,1.56,5.07,2.25,7.34.73,2.25,1.29,4.35,1.76,6.22.49,1.86.91,3.48,1.26,4.82.69,2.66,1.09,4.18,1.09,4.18,0,0-.7-1.41-1.93-3.88-.61-1.23-1.35-2.72-2.2-4.43-.83-1.72-1.81-3.63-2.97-5.68-1.13-2.05-2.35-4.27-3.65-6.62-1.33-2.33-2.85-4.71-4.34-7.2-1.46-2.51-3.19-4.97-4.88-7.5-1.65-2.55-3.49-5.02-5.32-7.47-.01-.02-.02-.03-.03-.05-2.16-3.04-5.29-5.24-8.79-6.51-7.62-2.76-15.33-4.96-23.14-6.6.15.32.31.62.44.94,1.36,2.93,2.71,5.85,3.85,8.79,1.18,2.93,2.4,5.77,3.35,8.61.99,2.82,2,5.52,2.84,8.12.8,2.6,1.55,5.07,2.25,7.34.73,2.26,1.29,4.35,1.76,6.22.48,1.85.91,3.47,1.25,4.8,30.29,4.83,55.36,17.75,75.15,32.51-.11-1.15-.23-2.35-.4-3.62Z"/>
        <path class="cls-6" d="M942.69,638c-4.54-18.15-11.84-35.12-21.82-50.82-.16.47-.33.94-.53,1.37-.34.71-.66,1.4-.97,2.07-.65,1.31-1.13,2.52-1.75,3.52-.6.99-1.13,1.86-1.56,2.58-.86,1.4-1.34,2.2-1.34,2.2,0,0,.16-.93.44-2.55.13-.8.3-1.77.48-2.88.2-1.1.2-2.4.31-3.75.04-.68.09-1.38.14-2.11.04-.73-.04-1.49-.05-2.26-.08-1.55-.04-3.14-.35-4.78-.06-.45-.13-.9-.19-1.35-6.95-9.72-14.96-18.93-24.07-27.57,0,1.79-.02,3.57-.13,5.3-.15,2.99-.22,5.87-.41,8.59-.24,2.71-.46,5.28-.67,7.65-.14,1.95-.35,3.72-.57,5.36,35.24,27.08,53.04,59.44,53.04,59.44Z"/>
        <path class="cls-6" d="M811.15,544.16c-.56-1.13-1.21-2.43-1.96-3.93-.83-1.72-1.81-3.63-2.97-5.68-1.13-2.05-2.35-4.27-3.65-6.62-1.33-2.33-2.85-4.71-4.34-7.2-1.46-2.51-3.19-4.97-4.88-7.5-1.65-2.55-3.49-5.02-5.32-7.47-1.77-2.5-3.75-4.83-5.63-7.15,0,0,0-.01-.01-.02-.81-1.03-2.04-1.66-3.35-1.79-10.99-1.12-22.15-1.15-33.47-.09,1.24,1.76,2.47,3.54,3.59,5.39,1.74,2.72,3.47,5.43,5,8.2,1.56,2.75,3.15,5.4,4.47,8.09,1.36,2.67,2.72,5.2,3.9,7.66,1.14,2.47,2.22,4.81,3.22,6.97,1.02,2.14,1.87,4.14,2.58,5.93.66,1.6,1.23,2.99,1.72,4.19,14.61-1.4,28.31-.91,41.09,1.04Z"/>
        <path class="cls-6" d="M715.7,556.35c-.28-.26-.54-.51-.82-.78-1.97-1.82-4.13-3.64-6.31-5.56-2.15-1.96-4.54-3.78-6.9-5.69-2.34-1.94-4.84-3.74-7.32-5.53-2.44-1.85-5.03-3.48-7.52-5.13-2.47-1.69-5.06-3.06-7.45-4.54-2.48-1.32-4.83-2.66-7.13-3.73-1.14-.54-2.25-1.07-3.33-1.57-1.09-.46-2.14-.9-3.15-1.32-.63.04-1.43.08-2.06.12-7.95,4.37-14.2,8.42-18.52,11.4,21.97,7.24,39.65,18.27,53.39,29.6,0,0,11.51-5.12,17.12-7.27Z"/>
        <path class="cls-6" d="M533.86,522.62c-.63-.04-1.43-.08-2.06-.12-1.01.42-2.06.86-3.15,1.32-1.08.51-2.19,1.03-3.33,1.57-2.3,1.07-4.65,2.41-7.13,3.73-2.4,1.47-4.99,2.85-7.45,4.54-2.49,1.65-5.08,3.28-7.52,5.13-2.48,1.79-4.98,3.59-7.32,5.53-2.37,1.9-4.76,3.73-6.9,5.69-2.18,1.92-4.34,3.75-6.31,5.56-.28.27-.54.52-.82.78,5.61,2.16,11.3,4.55,17.11,7.27h0c13.74-11.33,31.42-22.35,53.39-29.59-4.32-2.99-10.58-7.03-18.52-11.4Z"/>
        <path class="cls-6" d="M479.09,552.39c1.58-2.22,3.36-4.49,5.15-6.89,1.76-2.43,3.77-4.77,5.78-7.21,1.97-2.47,4.14-4.85,6.31-7.23,2.13-2.44,4.45-4.7,6.7-6.97,2.23-2.31,4.66-4.35,6.9-6.47,1.75-1.46,3.43-2.89,5.12-4.25-9.86-4.32-21.06-8.39-33.33-11.5-3.3-.84-6.59-1.58-9.87-2.23-3.15-.63-6.45.31-8.77,2.55-.01.01-.03.02-.04.04-2.17,2.05-4.45,4.09-6.54,6.33-2.14,2.19-4.3,4.38-6.28,6.69-2.01,2.28-4.05,4.48-5.84,6.77-1.82,2.27-3.64,4.43-5.27,6.55-1.6,2.15-3.11,4.19-4.51,6.07-1.43,1.87-2.65,3.64-3.71,5.23-.86,1.27-1.61,2.37-2.28,3.36,15.29,1.56,31.58,5.22,48.87,11.48.52-.76,1.04-1.52,1.59-2.31Z"/>
        <path class="cls-6" d="M386.6,539.54c.47-1.87,1.04-3.97,1.76-6.22.7-2.27,1.45-4.74,2.25-7.34.84-2.6,1.85-5.29,2.84-8.12.95-2.84,2.17-5.68,3.35-8.61,1.14-2.95,2.49-5.87,3.85-8.79.14-.32.3-.63.45-.94-7.81,1.64-15.52,3.83-23.14,6.6-3.51,1.27-6.63,3.48-8.79,6.51-.01.02-.02.03-.03.05-1.83,2.45-3.68,4.92-5.32,7.47-1.68,2.53-3.42,4.99-4.88,7.5-1.5,2.49-3.01,4.88-4.34,7.2-1.3,2.35-2.52,4.57-3.65,6.62-1.16,2.04-2.14,3.96-2.97,5.68-.85,1.71-1.59,3.2-2.21,4.43-1.23,2.47-1.93,3.88-1.93,3.88,0,0,.4-1.52,1.09-4.18.35-1.34.77-2.96,1.26-4.82.47-1.87,1.04-3.97,1.76-6.22.7-2.27,1.45-4.74,2.25-7.34.84-2.6,1.85-5.29,2.84-8.12.95-2.84,2.17-5.68,3.35-8.61.09-.24.21-.48.3-.72-12.43,6.41-24.58,14.4-36.43,23.95-2.89,2.33-5,5.55-5.7,9.19v.06c-.62,2.97-1.31,5.9-1.72,8.78-.46,2.87-.97,5.65-1.33,8.31-.32,2.66-.62,5.18-.9,7.51-.17,1.27-.3,2.47-.4,3.62,19.79-14.77,44.86-27.68,75.15-32.51.35-1.33.77-2.95,1.25-4.8Z"/>
        <path class="cls-6" d="M427.52,543.12c.49-1.2,1.06-2.58,1.72-4.19.71-1.79,1.56-3.79,2.58-5.93,1-2.16,2.08-4.5,3.22-6.97,1.18-2.46,2.55-4.99,3.9-7.66,1.32-2.69,2.91-5.34,4.47-8.09,1.53-2.77,3.26-5.48,5-8.2,1.13-1.85,2.35-3.63,3.59-5.39-11.32-1.05-22.48-1.02-33.47.09-1.31.13-2.53.76-3.34,1.79,0,0,0,.01-.01.02-1.88,2.32-3.85,4.65-5.63,7.15-1.83,2.46-3.68,4.92-5.32,7.47-1.68,2.52-3.41,4.99-4.88,7.5-1.5,2.49-3.01,4.88-4.34,7.2-1.3,2.35-2.52,4.57-3.65,6.62-1.16,2.04-2.14,3.96-2.97,5.68-.75,1.5-1.39,2.8-1.95,3.93,12.77-1.95,26.48-2.44,41.09-1.04Z"/>
        <path class="cls-6" d="M307.93,578.57c-.22-1.64-.42-3.41-.56-5.36-.21-2.37-.43-4.94-.67-7.65-.19-2.72-.27-5.6-.41-8.59-.11-1.73-.13-3.51-.13-5.3-9.11,8.64-17.12,17.85-24.07,27.57-.06.45-.12.9-.19,1.35-.31,1.64-.26,3.23-.35,4.78-.01.77-.09,1.53-.05,2.26.05.73.09,1.43.14,2.11.11,1.36.11,2.65.31,3.75.19,1.11.35,2.08.49,2.88.28,1.62.44,2.55.44,2.55,0,0-.49-.8-1.34-2.2-.43-.71-.96-1.58-1.56-2.58-.62-1-1.1-2.21-1.75-3.52-.31-.66-.64-1.35-.97-2.07-.2-.44-.37-.9-.53-1.37-9.98,15.7-17.29,32.67-21.82,50.82h0s17.8-32.35,53.04-59.44Z"/>
        <path class="cls-6" d="M882.51,705.96l.07-.02c20.74-24.54,47.23-44.1,80.11-59.07-37.04,3.57-70.33,12.65-99.31,27.14-30.08,15.04-55.65,35.93-75.99,62.08-30.81,39.61-40.28,79.66-42.09,88.6,4.79,8.45,10.67,15.1,17.07,20.32h0c16.29-99.62,120.15-139.04,120.15-139.04Z"/>
      </g>
      <path class="cls-7" d="M789.1,716.46c-17.43.95-25.47,6.24-29.15,10.75,5.35-.02,11.43.61,18.36,2.13,3.28-4.23,6.88-8.54,10.79-12.87Z"/>
      <path class="cls-3" d="M953.95,636.46c-9.3-38.29-29.99-71.68-61.59-99.24-67.52-58.9-135-57.64-179.73-46.21-43.19,11.04-73.27,32.93-80.05,38.17-1.24.12-2.38.27-3.54.42-12.25-3.65-37.93-5.55-60.51,0-1.16-.15-2.31-.3-3.54-.42-6.78-5.25-36.86-27.13-80.05-38.17-44.72-11.43-112.21-12.69-179.73,46.21-31.6,27.56-52.29,60.95-61.59,99.24-17.44-2.22-38.28,2.72-38.28,2.72,0,0,21.2,13.42,33.92,22.27-4.75,45.18,6.18,92.62,30.85,133.78,20.67,34.48,48.72,61.13,79.33,73.55,13.1,5.31,23.01,6.06,23.01,6.06,18.06.64,66.95-2.05,90.75-46.55l.9-1.68-.3-1.88c-.29-1.81-6.95-41.94-37.13-85.34,27.64-4.51,35.27,8.28,36.81,11.8-2.86,32.67,5.06,73.89,5.06,73.89.2.13,21.02-2.65,33.58,23.5,12.06,25.08-2.42,54.04-2.56,54.33l-.84,1.65.29,1.83c7.12,44.06,54.49,55.61,56.51,56.08l.64.15h85.25l.63-.15c2.01-.47,49.38-12.02,56.51-56.08l.29-1.83-.84-1.65c-.15-.29-14.62-29.25-2.56-54.33,12.57-26.15,33.38-23.36,33.58-23.5,0,0,7.92-41.22,5.06-73.89,1.54-3.52,9.17-16.31,36.81-11.8-30.18,43.4-36.85,83.53-37.13,85.34l-.3,1.88.9,1.68c23.8,44.49,72.69,47.18,90.75,46.55,0,0,9.92-.75,23.01-6.06,30.61-12.42,58.66-39.07,79.33-73.55,24.67-41.16,35.6-88.6,30.85-133.78,12.73-8.85,33.92-22.27,33.92-22.27,0,0-20.84-4.94-38.28-2.72ZM663.72,522.62c.63-.04,1.43-.08,2.06-.12,1.01.42,2.06.86,3.15,1.32,1.08.51,2.19,1.03,3.33,1.57,2.3,1.07,4.65,2.41,7.13,3.73,2.39,1.47,4.98,2.85,7.45,4.54,2.49,1.65,5.07,3.28,7.52,5.13,2.48,1.79,4.98,3.59,7.32,5.53,2.36,1.9,4.76,3.73,6.9,5.69,2.18,1.92,4.34,3.75,6.31,5.56,1.94,1.85,3.78,3.6,5.47,5.22,1.72,1.6,3.23,3.14,4.54,4.52,1.33,1.38,2.48,2.58,3.43,3.57,1.91,1.99,3,3.12,3,3.12,0,0-.84-1.33-2.3-3.66-.73-1.17-1.62-2.59-2.64-4.22-1.01-1.64-2.18-3.47-3.55-5.41-1.35-1.96-2.81-4.08-4.35-6.33-1.58-2.22-3.36-4.49-5.14-6.89-1.76-2.43-3.78-4.77-5.78-7.21-1.97-2.47-4.14-4.85-6.31-7.23-2.13-2.44-4.45-4.7-6.7-6.97-2.23-2.31-4.66-4.35-6.9-6.47-1.75-1.46-3.43-2.89-5.12-4.25,9.86-4.32,21.07-8.39,33.33-11.5,3.3-.84,6.59-1.58,9.87-2.23,3.15-.63,6.45.31,8.76,2.55.01.01.03.02.04.04,2.17,2.05,4.45,4.09,6.54,6.33,2.15,2.19,4.3,4.38,6.28,6.69,2.01,2.28,4.05,4.48,5.84,6.77,1.82,2.27,3.64,4.43,5.27,6.55,1.6,2.15,3.11,4.19,4.51,6.07,1.43,1.87,2.65,3.64,3.71,5.23,1.07,1.58,2.01,2.96,2.78,4.1,1.55,2.28,2.43,3.58,2.43,3.58,0,0-.6-1.45-1.64-4-.52-1.28-1.16-2.83-1.89-4.6-.71-1.79-1.56-3.79-2.58-5.93-1-2.16-2.08-4.5-3.22-6.97-1.18-2.46-2.55-4.99-3.9-7.66-1.32-2.69-2.91-5.34-4.47-8.09-1.52-2.77-3.25-5.48-5-8.2-1.13-1.85-2.35-3.63-3.59-5.39,11.32-1.05,22.48-1.02,33.47.09,1.31.13,2.53.76,3.35,1.79,0,0,0,.01.01.02,1.88,2.32,3.86,4.65,5.63,7.15,1.83,2.46,3.67,4.92,5.32,7.47,1.69,2.52,3.41,4.99,4.88,7.5,1.5,2.49,3.02,4.88,4.34,7.2,1.29,2.35,2.52,4.57,3.65,6.62,1.16,2.04,2.14,3.96,2.97,5.68.85,1.71,1.59,3.21,2.21,4.43,1.22,2.47,1.93,3.88,1.93,3.88,0,0-.4-1.52-1.09-4.18-.35-1.34-.77-2.96-1.26-4.82-.47-1.87-1.04-3.97-1.76-6.22-.7-2.27-1.45-4.74-2.25-7.34-.84-2.6-1.85-5.29-2.84-8.12-.95-2.84-2.17-5.68-3.35-8.61-1.14-2.95-2.49-5.87-3.85-8.79-.14-.32-.3-.63-.44-.94,7.81,1.64,15.52,3.83,23.14,6.6,3.51,1.27,6.63,3.48,8.79,6.51.01.02.02.03.03.05,1.83,2.45,3.67,4.92,5.32,7.47,1.68,2.53,3.41,4.99,4.88,7.5,1.5,2.49,3.01,4.88,4.34,7.2,1.29,2.35,2.52,4.57,3.65,6.62,1.16,2.04,2.14,3.96,2.97,5.68.85,1.71,1.59,3.2,2.2,4.43,1.22,2.47,1.93,3.88,1.93,3.88,0,0-.4-1.52-1.09-4.18-.35-1.34-.77-2.96-1.26-4.82-.47-1.87-1.04-3.97-1.76-6.22-.7-2.27-1.45-4.74-2.25-7.34-.84-2.6-1.85-5.29-2.84-8.12-.95-2.84-2.17-5.68-3.35-8.61-.09-.24-.21-.48-.3-.72,12.43,6.41,24.58,14.4,36.43,23.95,2.89,2.33,5,5.55,5.7,9.19v.06c.62,2.97,1.31,5.9,1.72,8.78.45,2.87.97,5.65,1.33,8.31.32,2.66.62,5.18.9,7.51.31,2.33.5,4.48.62,6.38.15,1.91.27,3.57.38,4.94.21,2.75.33,4.32.33,4.32,0,0,.2-1.56.56-4.29.18-1.37.39-3.03.64-4.94.27-1.91.53-4.07.7-6.43.21-2.37.43-4.94.67-7.65.19-2.72.27-5.6.41-8.59.11-1.73.13-3.51.13-5.3,9.11,8.64,17.12,17.85,24.07,27.57.06.45.12.9.19,1.35.3,1.64.26,3.23.35,4.78.01.77.09,1.53.05,2.26-.05.73-.09,1.43-.14,2.11-.12,1.36-.11,2.65-.31,3.75-.19,1.11-.35,2.08-.48,2.88-.28,1.62-.44,2.55-.44,2.55,0,0,.49-.8,1.34-2.2.43-.71.96-1.58,1.56-2.58.62-1,1.1-2.21,1.75-3.52.31-.66.64-1.35.97-2.07.2-.44.37-.9.53-1.37,9.98,15.7,17.28,32.67,21.82,50.82-18.24,2.79-34.88,6.86-50.03,11.91,1.91-12.21,1.66-26.43,1.64-27.21l-.23-11.42-8.94,7.11c-2.52,2.01-4.92,3.67-7.21,5.06-21.94-27.33-46.79-42.16-73.95-44-26.89-1.83-49.99,9.41-64.63,19.14l-1.67-4.44-9.66.48c-12.5-16.98-39.22-46.24-82.82-60.61,4.32-2.99,10.58-7.03,18.52-11.4ZM745.26,614.33c.52-.49,1.06-.97,1.64-1.41,6.26-4.72,14.28-8.96,23.68-8.11,12.19,1.1,23.62,7.81,34.06,19.91-4.64,1.57-9.57,4-14.85,7.59-20.95,14.24-34.96,15.68-42.96,14.44l5.69-13.11-7.27-19.32ZM276.71,587.18c.16.47.33.94.53,1.37.34.71.66,1.4.97,2.07.65,1.31,1.13,2.52,1.75,3.52.6.99,1.13,1.86,1.56,2.58.85,1.4,1.34,2.2,1.34,2.2,0,0-.16-.93-.44-2.55-.13-.8-.3-1.77-.49-2.88-.2-1.1-.2-2.4-.31-3.75-.04-.68-.09-1.38-.14-2.11-.04-.73.04-1.49.05-2.26.08-1.55.04-3.14.35-4.78.06-.45.13-.9.19-1.35,6.95-9.72,14.96-18.93,24.07-27.57,0,1.79.02,3.57.13,5.3.15,2.99.22,5.87.41,8.59.24,2.71.46,5.28.67,7.65.17,2.36.43,4.52.7,6.43.25,1.91.46,3.57.64,4.94.36,2.73.56,4.29.56,4.29,0,0,.12-1.57.33-4.32.11-1.37.23-3.03.38-4.94.13-1.9.31-4.05.62-6.38.28-2.32.58-4.84.9-7.51.36-2.65.87-5.44,1.33-8.31.41-2.88,1.1-5.81,1.71-8.78v-.06c.71-3.65,2.82-6.86,5.71-9.19,11.85-9.55,24-17.54,36.43-23.95-.1.24-.21.48-.3.72-1.18,2.93-2.4,5.77-3.35,8.61-.99,2.83-2,5.52-2.84,8.12-.8,2.6-1.55,5.07-2.25,7.34-.73,2.25-1.29,4.35-1.76,6.22-.48,1.86-.91,3.48-1.26,4.82-.69,2.66-1.09,4.18-1.09,4.18,0,0,.7-1.41,1.93-3.88.61-1.23,1.35-2.72,2.21-4.43.83-1.72,1.81-3.63,2.97-5.68,1.13-2.05,2.35-4.27,3.65-6.62,1.33-2.33,2.85-4.71,4.34-7.2,1.46-2.51,3.19-4.97,4.88-7.5,1.65-2.55,3.49-5.02,5.32-7.47.01-.02.02-.03.03-.05,2.16-3.04,5.29-5.24,8.79-6.51,7.62-2.76,15.33-4.96,23.14-6.6-.14.32-.31.62-.45.94-1.36,2.93-2.71,5.85-3.85,8.79-1.18,2.93-2.4,5.77-3.35,8.61-.99,2.82-2,5.52-2.84,8.12-.8,2.6-1.56,5.07-2.25,7.34-.73,2.26-1.29,4.35-1.76,6.22-.48,1.86-.91,3.48-1.26,4.82-.69,2.66-1.09,4.18-1.09,4.18,0,0,.7-1.41,1.93-3.88.61-1.23,1.35-2.72,2.21-4.43.83-1.72,1.81-3.63,2.97-5.68,1.13-2.05,2.35-4.27,3.65-6.62,1.33-2.33,2.85-4.71,4.34-7.2,1.46-2.51,3.19-4.97,4.88-7.5,1.65-2.55,3.49-5.02,5.32-7.47,1.77-2.5,3.75-4.83,5.63-7.15,0,0,0-.01.01-.02.81-1.03,2.04-1.66,3.34-1.79,10.99-1.12,22.15-1.15,33.47-.09-1.24,1.76-2.47,3.54-3.59,5.39-1.74,2.72-3.47,5.43-5,8.2-1.56,2.75-3.15,5.4-4.47,8.09-1.36,2.67-2.72,5.2-3.9,7.66-1.14,2.47-2.22,4.81-3.22,6.97-1.02,2.14-1.87,4.14-2.58,5.93-.73,1.78-1.37,3.33-1.89,4.6-1.04,2.54-1.64,4-1.64,4,0,0,.88-1.3,2.43-3.58.77-1.14,1.71-2.52,2.78-4.1,1.05-1.59,2.28-3.36,3.71-5.23,1.39-1.88,2.91-3.92,4.51-6.07,1.63-2.13,3.45-4.29,5.27-6.55,1.79-2.29,3.83-4.5,5.84-6.77,1.97-2.31,4.13-4.5,6.28-6.69,2.09-2.24,4.36-4.28,6.54-6.33.01-.01.03-.02.04-.04,2.31-2.23,5.61-3.17,8.77-2.55,3.28.65,6.57,1.39,9.87,2.23,12.26,3.11,23.47,7.18,33.33,11.5-1.69,1.36-3.37,2.79-5.12,4.25-2.25,2.11-4.68,4.16-6.9,6.47-2.26,2.28-4.58,4.54-6.7,6.97-2.18,2.39-4.34,4.76-6.31,7.23-2,2.44-4.02,4.78-5.78,7.21-1.79,2.4-3.56,4.66-5.15,6.89-1.54,2.24-3,4.37-4.35,6.33-1.37,1.93-2.54,3.76-3.55,5.41-1.02,1.63-1.91,3.05-2.65,4.22-1.46,2.33-2.3,3.66-2.3,3.66,0,0,1.09-1.13,3-3.12.95-.99,2.11-2.19,3.43-3.57,1.31-1.39,2.82-2.92,4.54-4.52,1.69-1.62,3.53-3.37,5.47-5.22,1.97-1.82,4.13-3.64,6.31-5.56,2.15-1.96,4.54-3.78,6.9-5.69,2.34-1.94,4.84-3.74,7.32-5.53,2.44-1.85,5.03-3.48,7.52-5.13,2.47-1.69,5.06-3.06,7.45-4.54,2.48-1.32,4.83-2.66,7.13-3.73,1.14-.54,2.25-1.07,3.33-1.57,1.09-.46,2.14-.9,3.15-1.32.63.04,1.43.08,2.06.12,7.95,4.37,14.2,8.42,18.52,11.4-43.6,14.37-70.33,43.63-82.82,60.61l-9.66-.48-1.67,4.44c-14.64-9.74-37.73-20.97-64.63-19.14-27.16,1.85-52.01,16.67-73.95,44-2.3-1.39-4.69-3.06-7.21-5.06l-8.94-7.11-.23,11.42c-.02.78-.27,15,1.64,27.21-15.15-5.05-31.79-9.12-50.03-11.91,4.54-18.15,11.84-35.12,21.82-50.82ZM450.74,646.76c-8.01,1.24-22.01-.2-42.96-14.44-5.28-3.59-10.21-6.02-14.85-7.59,10.44-12.11,21.87-18.81,34.06-19.91,9.41-.85,17.42,3.39,23.68,8.11.58.44,1.12.92,1.64,1.41l-7.27,19.32,5.69,13.11ZM279.82,789.42c-22.59-37.68-33.05-80.85-29.73-122.23,14.58,8.21,27.62,17.55,39.2,28.14-2.73,26.1.85,68.41,32.89,122.73,9.05,15.34,18.3,28.17,25.64,37.53-25.89-12.82-49.94-36.05-68-66.17ZM452.3,824.68c-21.92,38.62-66.43,39.59-80.67,38.84-.07-.86-.16-1.7-.24-2.55.42-.09.83-.17,1.26-.28,2.02-.56,4.21-1.04,6.45-1.85,1.13-.38,2.28-.75,3.44-1.18,1.15-.47,2.32-.95,3.51-1.44,1.19-.45,2.36-1.05,3.54-1.64,1.17-.6,2.38-1.14,3.54-1.81,2.29-1.4,4.66-2.65,6.8-4.31l3.24-2.34c1-.87,2-1.73,2.99-2.59,2.02-1.63,3.73-3.54,5.41-5.31,1.74-1.7,3.09-3.66,4.46-5.38.66-.89,1.36-1.69,1.92-2.56.55-.87,1.08-1.72,1.58-2.53.98-1.64,1.99-3.03,2.65-4.42.68-1.37,1.26-2.57,1.75-3.55.96-1.95,1.5-3.06,1.5-3.06,0,0-.84.92-2.31,2.52-.73.79-1.61,1.75-2.62,2.85-.99,1.1-2.34,2.15-3.67,3.38-.67.6-1.38,1.22-2.11,1.87-.73.64-1.59,1.18-2.41,1.8-1.69,1.18-3.34,2.54-5.32,3.58-1.92,1.11-3.82,2.3-5.95,3.17-1.03.47-2.07.94-3.11,1.42l-3.24,1.13c-2.1.84-4.38,1.26-6.48,1.85-1.07.26-2.18.4-3.23.6-1.06.18-2.09.39-3.14.46-1.03.1-2.05.21-3.04.31-1,.06-1.98.07-2.92.11-1.87.12-3.68-.03-5.3-.05-.45-.03-.86-.07-1.28-.1-.49-3.76-1.03-7.45-1.61-11.1.28-.12.56-.23.84-.34,1.19-.45,2.36-1.05,3.54-1.64,1.17-.6,2.38-1.14,3.54-1.81,2.29-1.4,4.66-2.65,6.8-4.31l3.24-2.34c1-.87,2-1.73,2.99-2.59,2.02-1.63,3.73-3.54,5.41-5.31,1.74-1.7,3.09-3.66,4.46-5.38.66-.88,1.36-1.69,1.91-2.56.55-.87,1.08-1.72,1.59-2.53.98-1.64,1.98-3.03,2.65-4.42.68-1.37,1.27-2.57,1.75-3.55.96-1.95,1.5-3.06,1.5-3.06,0,0-.84.91-2.31,2.52-.73.79-1.61,1.75-2.62,2.85-.99,1.1-2.34,2.15-3.67,3.38-.68.6-1.38,1.22-2.11,1.87-.73.64-1.59,1.18-2.41,1.8-1.69,1.18-3.34,2.54-5.32,3.58-1.92,1.11-3.82,2.3-5.95,3.17-1.03.47-2.07.94-3.11,1.42l-3.24,1.13c-2.1.84-4.37,1.26-6.48,1.85-1.07.26-2.17.4-3.23.6-.85.15-1.68.29-2.52.38-1.67-8.22-3.6-16.12-5.77-23.75.41-.23.82-.45,1.23-.67,1.89-1.22,3.84-2.32,5.59-3.74l2.65-2.02c.82-.74,1.63-1.48,2.43-2.22,1.64-1.4,3.03-3.03,4.38-4.54,1.4-1.45,2.48-3.11,3.57-4.56.52-.75,1.08-1.43,1.52-2.16.43-.73.85-1.45,1.25-2.13.77-1.38,1.56-2.55,2.08-3.71.52-1.15.98-2.14,1.35-2.97.73-1.62,1.15-2.55,1.15-2.55,0,0-.71.73-1.96,2.01-.62.63-1.36,1.39-2.22,2.26-.84.87-1.98,1.7-3.09,2.67-.57.47-1.16.96-1.77,1.47-.61.5-1.33.92-2.02,1.4-1.41.92-2.78,1.97-4.42,2.76-1.59.84-3.16,1.75-4.92,2.39-.85.35-1.7.7-2.55,1.05l-2.65.82c-1.72.61-3.56.88-5.27,1.29-.12.02-.24.04-.37.05-2.34-6.91-4.91-13.56-7.71-19.97.4-.38.81-.76,1.21-1.13,1.5-1.32,2.77-2.85,4-4.26,1.28-1.36,2.26-2.91,3.25-4.27.48-.7.98-1.33,1.38-2.02.39-.69.77-1.35,1.13-1.98.69-1.28,1.41-2.38,1.87-3.46.47-1.06.87-1.99,1.21-2.76.65-1.51,1.03-2.37,1.03-2.37,0,0-.67.66-1.83,1.83-.58.57-1.28,1.26-2.08,2.06-.79.79-1.85,1.54-2.89,2.41-.53.42-1.08.87-1.65,1.33-.57.45-1.24.83-1.88,1.26-1.31.82-2.59,1.77-4.1,2.47-1.47.75-2.93,1.56-4.55,2.12-.04.02-.08.03-.12.05-3.75-7.71-7.85-15.06-12.33-22.04-22.48-35.01-54.12-61.64-96.17-80.78,37.04,3.57,70.33,12.65,99.32,27.14,30.08,15.04,55.65,35.93,75.99,62.08,30.81,39.61,40.28,79.66,42.09,88.6ZM419.28,729.34c-3.28-4.23-6.88-8.54-10.79-12.87,17.43.95,25.47,6.24,29.15,10.75-5.35-.02-11.43.61-18.36,2.13ZM640.05,951.33h-82.51c-1.95-.53-8.66-2.54-16.47-6.78,28.56-.59,49.61-13.29,57.73-19.04,8.11,5.76,29.17,18.46,57.73,19.04-7.81,4.24-14.52,6.25-16.47,6.78ZM732.71,718.31c-7.15,14.64-9.51,28.43-9.9,30.95l-.19.68-9.85,34.94-22.61,10.36h28.57l4.53-8.05c-.65,13.8-3.37,23.09-3.98,27.85-7.07,2.04-22.4,4.46-34.03,28.66-.67,1.39-1.26,2.79-1.8,4.19h0s-7.74-16.67-7.74-16.67l-31.09-14.57,22.61,23.55s8.93,16.28,12.94,42.38h0c1.66,11.21,5.25,20.05,6.92,23.72-2.12,10.82-7.42,19.23-13.74,25.73-34.86,5.82-61.57-11.09-68.88-16.37v-21.22l4.3-12.36,9.58-6.41,12.79-1.97,9.42,6.88-5.71,16.58,16.3-12.77v-15.22l-14.13-11.14-25.82,1.36-12.44,3.56-12.44-3.56-25.82-1.36-14.13,11.14v15.22l16.3,12.77-5.71-16.58,9.42-6.88,12.79,1.97,9.58,6.41,4.3,12.36v21.22c-7.31,5.28-34.02,22.19-68.88,16.37-6.32-6.49-11.62-14.91-13.74-25.73,1.66-3.66,5.25-12.51,6.92-23.72h0c4.02-26.1,12.94-42.38,12.94-42.38l22.61-23.55-31.09,14.57-7.74,16.67h0c-.54-1.39-1.13-2.79-1.8-4.18-11.64-24.21-26.97-26.62-34.03-28.66-.61-4.76-3.33-14.05-3.98-27.85l4.53,8.05h28.57l-22.61-10.36-9.85-34.94-.19-.68c-.39-2.52-2.75-16.31-9.9-30.95-10.58-21.68-26.57-34.64-46.25-37.48-19.75-2.85-30.4-2.38-38.17-2.03-9.1.4-12.87.57-23.9-5.35l-.08.15c-11.65-7.05-24.64-13.55-39.08-19.16-1.59-5.57-2.33-13.8-2.64-20.74,18.61,10.84,32.72,6.86,45.39,3.28,13.03-3.68,24.28-6.86,41.28,4.7,25.54,17.36,43.42,18.05,53.89,15.6l15.06,34.66-8.2-54.03,10.6-24.46,28.08.82,32.7,18.39,21.74,42.03-11.59-59.06-38.31-19.2-17.54-.87c10.97-15.04,24.08-26.17,37.45-34.4,44.89-27.63,102.12-27.63,147.01,0,13.38,8.23,26.48,19.36,37.45,34.41l-17.54.87-38.31,19.2-11.59,59.06,21.74-42.03,32.7-18.39,28.08-.82,10.6,24.46-8.2,54.03,15.06-34.66c10.47,2.44,28.34,1.76,53.89-15.6,17-11.56,28.25-8.38,41.28-4.7,12.66,3.58,26.78,7.56,45.39-3.28-.31,6.94-1.05,15.17-2.64,20.74-14.44,5.62-27.43,12.11-39.08,19.16l-.08-.15c-11.03,5.92-14.8,5.76-23.9,5.35-7.78-.35-18.43-.82-38.17,2.03-19.67,2.84-35.66,15.8-46.25,37.48ZM759.95,727.21c3.68-4.51,11.72-9.8,29.15-10.75-3.91,4.33-7.51,8.64-10.79,12.87-6.93-1.52-13.01-2.15-18.36-2.13ZM917.76,789.42c-18.06,30.12-42.11,53.34-68,66.17,7.34-9.36,16.59-22.19,25.64-37.53,32.04-54.31,35.61-96.62,32.89-122.73,11.58-10.58,24.62-19.93,39.2-28.14,3.32,41.38-7.14,84.55-29.73,122.23ZM866.51,727.65c-4.48,6.98-8.58,14.33-12.33,22.04-.04-.02-.08-.03-.12-.05-1.62-.56-3.07-1.37-4.55-2.12-1.52-.7-2.79-1.65-4.11-2.47-.64-.43-1.31-.81-1.88-1.26-.57-.46-1.12-.9-1.65-1.33-1.04-.87-2.1-1.62-2.89-2.41-.8-.79-1.5-1.49-2.08-2.06-1.17-1.16-1.83-1.83-1.83-1.83,0,0,.37.86,1.03,2.37.34.76.74,1.69,1.21,2.76.46,1.08,1.18,2.17,1.87,3.46.36.64.74,1.3,1.13,1.98.4.69.9,1.32,1.38,2.02.99,1.36,1.97,2.91,3.25,4.27,1.23,1.41,2.5,2.94,4,4.26.4.37.81.75,1.21,1.13-2.8,6.41-5.37,13.06-7.71,19.97-.12-.02-.24-.04-.37-.05-1.71-.4-3.56-.67-5.27-1.29l-2.65-.82c-.85-.35-1.71-.71-2.55-1.05-1.75-.64-3.33-1.55-4.92-2.39-1.64-.78-3.01-1.84-4.42-2.76-.69-.48-1.41-.9-2.02-1.4-.61-.51-1.2-1-1.77-1.47-1.12-.97-2.25-1.79-3.1-2.67-.86-.87-1.6-1.64-2.22-2.26-1.25-1.28-1.96-2.01-1.96-2.01,0,0,.42.93,1.15,2.55.37.82.83,1.82,1.35,2.97.52,1.16,1.31,2.34,2.08,3.71.4.68.82,1.39,1.25,2.13.44.74,1,1.41,1.52,2.16,1.09,1.46,2.17,3.11,3.57,4.56,1.35,1.51,2.74,3.13,4.38,4.54.81.74,1.62,1.48,2.43,2.22l2.65,2.02c1.75,1.43,3.7,2.52,5.59,3.74.41.23.82.45,1.23.67-2.17,7.63-4.1,15.53-5.77,23.75-.84-.09-1.67-.24-2.52-.38-1.05-.2-2.16-.34-3.23-.6-2.11-.59-4.38-1.01-6.48-1.85l-3.25-1.13c-1.04-.47-2.08-.95-3.11-1.42-2.13-.87-4.04-2.06-5.95-3.17-1.98-1.04-3.63-2.4-5.32-3.58-.82-.62-1.68-1.16-2.41-1.8-.73-.65-1.43-1.27-2.11-1.87-1.33-1.23-2.68-2.28-3.67-3.38-1.01-1.1-1.89-2.06-2.62-2.85-1.47-1.6-2.31-2.52-2.31-2.52,0,0,.55,1.11,1.5,3.06.48.98,1.07,2.18,1.75,3.55.67,1.39,1.68,2.78,2.65,4.42.51.81,1.04,1.65,1.58,2.53.56.87,1.26,1.67,1.92,2.56,1.37,1.72,2.72,3.68,4.46,5.38,1.68,1.77,3.39,3.68,5.41,5.31.99.86,1.99,1.72,2.99,2.59l3.24,2.34c2.14,1.65,4.51,2.9,6.8,4.31,1.16.67,2.36,1.21,3.54,1.81,1.18.58,2.35,1.18,3.54,1.64.29.12.56.23.84.34-.58,3.65-1.12,7.34-1.61,11.1-.43.03-.83.07-1.29.1-1.62.02-3.42.17-5.3.05-.94-.04-1.92-.05-2.92-.11-.99-.1-2.01-.2-3.04-.31-1.05-.07-2.08-.28-3.14-.46-1.05-.2-2.16-.34-3.23-.6-2.11-.59-4.38-1.01-6.48-1.85l-3.25-1.13c-1.04-.48-2.08-.95-3.11-1.42-2.13-.87-4.04-2.06-5.95-3.17-1.98-1.03-3.63-2.4-5.32-3.58-.82-.62-1.68-1.16-2.41-1.8-.73-.65-1.43-1.27-2.11-1.87-1.33-1.23-2.68-2.28-3.67-3.38-1.01-1.1-1.89-2.06-2.62-2.85-1.47-1.6-2.31-2.52-2.31-2.52,0,0,.55,1.11,1.5,3.06.49.98,1.08,2.18,1.75,3.55.67,1.39,1.67,2.78,2.65,4.42.51.81,1.04,1.66,1.59,2.53.56.87,1.26,1.67,1.92,2.56,1.37,1.72,2.72,3.68,4.46,5.38,1.68,1.77,3.39,3.68,5.41,5.31.99.86,1.99,1.72,2.99,2.59l3.24,2.34c2.14,1.65,4.51,2.9,6.8,4.31,1.16.67,2.36,1.21,3.54,1.81,1.18.58,2.35,1.18,3.54,1.64,1.19.49,2.36.97,3.51,1.44,1.16.43,2.32.8,3.44,1.18,2.25.81,4.43,1.29,6.45,1.85.44.1.84.18,1.26.28-.07.86-.17,1.69-.24,2.55-14.24.75-58.75-.22-80.67-38.84,1.81-8.94,11.28-48.99,42.09-88.6,20.34-26.15,45.91-47.04,75.99-62.08,28.98-14.49,62.27-23.58,99.31-27.14-42.06,19.14-73.7,45.77-96.17,80.78Z"/>
      <path class="cls-3" d="M665.21,700.32l-16.06,31.93c-.17-.29-10.48-11.36-10.48-11.36l-3.75-31.75-8.75,38.09,29.92,46.51c-.42,2.6-2.41,36.56-2.51,40.19,1.63-3.25,16.55-41.73,16.55-41.73,0,0-11.4-22.61-12.62-24.89l5.55-7.74,1.84,3.8,28.42-1.57,17.4-33.29-7.64-13.55,4.35-8.79,17.21-6.52-26.09-2.9-33.33,23.55Z"/>
      <polygon class="cls-3" points="691.97 754.11 670.07 750.45 694.56 762.35 712.45 748.69 714.34 723.96 707.73 742.1 691.97 754.11"/>
      <path class="cls-3" d="M558.9,720.88s-10.31,11.07-10.47,11.36l-16.06-31.93-33.33-23.55-26.09,2.9,17.21,6.52,4.35,8.79-7.64,13.55,17.4,33.29,28.42,1.57,1.84-3.8,5.55,7.74c-1.22,2.28-12.62,24.89-12.62,24.89,0,0,14.92,38.47,16.55,41.73-.1-3.64-2.09-37.59-2.51-40.19l29.92-46.51-8.75-38.09-3.75,31.75Z"/>
      <polygon class="cls-3" points="505.61 754.11 489.85 742.1 483.24 723.96 485.12 748.69 503.02 762.35 527.51 750.45 505.61 754.11"/>
      <g>
        <path class="cls-7" d="M675.4,820.79l-30.77-4.14,31.09,14.57,7.74,16.67h0c.54-1.39,1.13-2.79,1.8-4.18,11.64-24.21,26.97-26.62,34.03-28.66.61-4.76,3.33-14.05,3.98-27.85l-4.53,8.05h-28.57l8.08,5.71-22.84,19.84Z"/>
        <path class="cls-7" d="M649.15,732.24l16.06-31.93,33.33-23.55,26.09,2.9-28.02-5.71-35.33,23.01-12.32,24.46-3.17-3.62-10.87-28.67,3.75,31.75s10.31,11.07,10.48,11.36Z"/>
        <path class="cls-7" d="M681.58,587.55l-34.24,19.2-5.04,67.94,11.59-59.06,38.31-19.2,17.54-.87c-10.97-15.04-24.07-26.17-37.45-34.41-13.57-8.35-28.26-14.15-43.4-17.46l43.98,27.37,8.7,16.49Z"/>
        <path class="cls-7" d="M697.88,618.52h22.46l9.6,21.01-5.31,40.13-17.21,6.52-4.35,8.79,7.64,13.55-17.4,33.29-28.42,1.57-1.84-3.8-5.55,7.74c1.22,2.28,12.62,24.89,12.62,24.89,0,0-14.92,38.47-16.55,41.73l24.56-42.86-8.07-20.61,21.9,3.66,15.76-12.01,6.61-18.13-1.88,24.73-17.9,13.66-24.49-11.9,23.29,21.43,8.15-4.35-1.63,13.59-9.71,14.13,22.61-10.36,9.85-34.94.19-.68c.39-2.52,2.75-16.31,9.9-30.95,10.58-21.68,26.57-34.64,46.25-37.48,19.75-2.85,30.4-2.38,38.17-2.03,9.1.4,12.87.57,23.9-5.35l.08.15c11.64-7.05,24.64-13.55,39.08-19.16,1.59-5.57,2.33-13.8,2.64-20.74-18.61,10.84-32.72,6.86-45.39,3.28-13.03-3.68-24.28-6.86-41.28,4.7-25.54,17.36-43.42,18.05-53.89,15.6l-15.06,34.66,8.2-54.03-10.6-24.46-28.08.82-32.7,18.39-21.74,42.03,24.06-39.5,31.52-16.67Z"/>
        <path class="cls-5" d="M631.15,873.69l-12.79,1.97-9.58,6.41-4.3,12.36v21.22c7.31,5.28,34.02,22.19,68.88,16.37,6.32-6.49,11.62-14.91,13.74-25.73-1.66-3.66-5.25-12.51-6.92-23.72h0c-4.02-26.1-12.94-42.38-12.94-42.38l-22.61-23.55,23.18,47.01,8.7,39.28-7.97,16.3-25.91,4.17-26.81-11.41,1.81-8.51,17.24-6.34,5.71-16.58-9.42-6.88Z"/>
      </g>
      <g>
        <path class="cls-7" d="M522.18,820.79l30.77-4.14-31.09,14.57-7.74,16.67h0c-.54-1.39-1.13-2.79-1.8-4.18-11.64-24.21-26.97-26.62-34.03-28.66-.61-4.76-3.33-14.05-3.98-27.85l4.53,8.05h28.57l-8.08,5.71,22.84,19.84Z"/>
        <path class="cls-7" d="M548.43,732.24l-16.06-31.93-33.33-23.55-26.09,2.9,28.02-5.71,35.33,23.01,12.32,24.46,3.17-3.62,10.87-28.67-3.75,31.75s-10.31,11.07-10.47,11.36Z"/>
        <path class="cls-7" d="M516,587.55l34.24,19.2,5.04,67.94-11.59-59.06-38.31-19.2-17.54-.87c10.97-15.04,24.08-26.17,37.45-34.41,13.56-8.35,28.26-14.15,43.39-17.46l-43.98,27.37-8.7,16.49Z"/>
        <path class="cls-7" d="M499.7,618.52h-22.46l-9.6,21.01,5.31,40.13,17.21,6.52,4.35,8.79-7.64,13.55,17.4,33.29,28.42,1.57,1.84-3.8,5.55,7.74c-1.22,2.28-12.62,24.89-12.62,24.89,0,0,14.92,38.47,16.55,41.73l-24.56-42.86,8.07-20.61-21.9,3.66-15.76-12.01-6.61-18.13,1.88,24.73,17.9,13.66,24.49-11.9-23.29,21.43-8.15-4.35,1.63,13.59,9.71,14.13-22.61-10.36-9.85-34.94-.19-.68c-.39-2.52-2.75-16.31-9.9-30.95-10.58-21.68-26.57-34.64-46.25-37.48-19.75-2.85-30.4-2.38-38.17-2.03-9.1.4-12.87.57-23.9-5.35l-.08.15c-11.65-7.05-24.64-13.55-39.08-19.16-1.59-5.57-2.33-13.8-2.64-20.74,18.61,10.84,32.72,6.86,45.39,3.28,13.03-3.68,24.28-6.86,41.28,4.7,25.54,17.36,43.42,18.05,53.89,15.6l15.06,34.66-8.2-54.03,10.6-24.46,28.08.82,32.7,18.39,21.74,42.03-24.06-39.5-31.52-16.67Z"/>
        <path class="cls-5" d="M566.43,873.69l12.79,1.97,9.58,6.41,4.3,12.36v21.22c-7.31,5.28-34.02,22.19-68.88,16.37-6.32-6.49-11.62-14.91-13.74-25.73,1.66-3.66,5.25-12.51,6.92-23.72h0c4.02-26.1,12.94-42.38,12.94-42.38l22.61-23.55-23.18,47.01-8.7,39.28,7.97,16.3,25.91,4.17,26.81-11.41-1.81-8.51-17.24-6.34-5.71-16.58,9.42-6.88Z"/>
      </g>
      <path class="cls-5" d="M541.06,944.56c7.81,4.24,14.52,6.25,16.47,6.78h82.51c1.95-.53,8.66-2.54,16.47-6.78-28.56-.59-49.61-13.29-57.73-19.04-8.11,5.76-29.17,18.46-57.73,19.04Z"/>
    </g>
  </g>
</svg>